# xmcd
#
# Track frame offsets:
#	183
#	14000
#	24465
#	36000
#	47998
#	61550
#	74023
#	86060
#	99045
#	108190
#	118993
#	131413
#	142860
#	155863
#	167648
#	188965
#
# Disc length: 2711 seconds
#
# Revision: 1
# Processed by: cddbd v1.4b42PL1 Copyright (c) Steve Scherf et al.
# Submitted via: audiograbber 1.80
#
DISCID=d80a9510
DTITLE=Engelbert Humperdinck - The Last Waltz
DYEAR=1900
DGENRE=
TTITLE0=The last waltz
TTITLE1=Dance with me
TTITLE2=Two different worlds
TTITLE3=If it comes to that
TTITLE4=Walk hand in hand
TTITLE5=A place in the sun
TTITLE6=Long gone
TTITLE7=All this world and the seven seas
TTITLE8=Miss Elaine E.S. Jones
TTITLE9=Everybody knows (we're through)
TTITLE10=Nature boy
TTITLE11=To the ends of the earth
TTITLE12=That promise
TTITLE13=Three little words (I love you)
TTITLE14=Those were the days
TTITLE15=What now my love
EXTD=
EXTT0=
EXTT1=
EXTT2=
EXTT3=
EXTT4=
EXTT5=
EXTT6=
EXTT7=
EXTT8=
EXTT9=
EXTT10=
EXTT11=
EXTT12=
EXTT13=
EXTT14=
EXTT15=
PLAYORDER=
